<svg width="14" height="14" viewBox="0 0 14 14" fill="none" xmlns="http://www.w3.org/2000/svg">
<path d="M10.914 4.78876C10.8598 4.73408 10.7952 4.69069 10.7241 4.66107C10.6531 4.63146 10.5768 4.61621 10.4998 4.61621C10.4228 4.61621 10.3466 4.63146 10.2755 4.66107C10.2044 4.69069 10.1399 4.73408 10.0856 4.78876L7.41398 7.46042C7.35975 7.5151 7.29523 7.55849 7.22415 7.58811C7.15306 7.61772 7.07682 7.63297 6.99981 7.63297C6.92281 7.63297 6.84656 7.61772 6.77548 7.58811C6.70439 7.55849 6.63987 7.5151 6.58565 7.46042L3.91398 4.78876C3.85975 4.73408 3.79523 4.69069 3.72415 4.66107C3.65306 4.63146 3.57682 4.61621 3.49981 4.61621C3.4228 4.61621 3.34656 4.63146 3.27547 4.66107C3.20439 4.69069 3.13987 4.73408 3.08564 4.78876C2.977 4.89805 2.91602 5.0459 2.91602 5.20001C2.91602 5.35412 2.977 5.50196 3.08564 5.61126L5.76315 8.28875C6.09127 8.61647 6.53606 8.80055 6.99981 8.80055C7.46356 8.80055 7.90835 8.61647 8.23648 8.28875L10.914 5.61126C11.0226 5.50196 11.0836 5.35412 11.0836 5.20001C11.0836 5.0459 11.0226 4.89805 10.914 4.78876V4.78876Z" fill="#344CB7"/>
</svg>
